<?xml version="1.0" encoding="utf-8" standalone="no"?>
<!DOCTYPE svg PUBLIC "-//W3C//DTD SVG 1.1//EN"
  "http://www.w3.org/Graphics/SVG/1.1/DTD/svg11.dtd">
<!-- Created with matplotlib (https://matplotlib.org/) -->
<svg height="288pt" version="1.1" viewBox="0 0 576 288" width="576pt" xmlns="http://www.w3.org/2000/svg" xmlns:xlink="http://www.w3.org/1999/xlink">
 <defs>
  <style type="text/css">
*{stroke-linecap:butt;stroke-linejoin:round;}
  </style>
 </defs>
 <g id="figure_1">
  <g id="patch_1">
   <path d="M 0 288 
L 576 288 
L 576 0 
L 0 0 
z
" style="fill:#ffffff;"/>
  </g>
  <g id="axes_1">
   <g id="LineCollection_1">
    <path clip-path="url(#pd7da24bfde)" d="M 463.14698 135.500001 
L 343.718091 248.863636 
" style="fill:none;stroke:#000000;stroke-opacity:0.3;stroke-width:4.965157;"/>
    <path clip-path="url(#pd7da24bfde)" d="M 463.14698 135.500001 
L 343.718065 22.136364 
" style="fill:none;stroke:#000000;stroke-opacity:0.3;stroke-width:6.707317;"/>
    <path clip-path="url(#pd7da24bfde)" d="M 463.14698 135.500001 
L 150.47802 65.437431 
" style="fill:none;stroke:#000000;stroke-opacity:0.3;stroke-width:1.916376;"/>
    <path clip-path="url(#pd7da24bfde)" d="M 463.14698 135.500001 
L 150.478041 205.562598 
" style="fill:none;stroke:#000000;stroke-opacity:0.3;stroke-width:0.087108;"/>
    <path clip-path="url(#pd7da24bfde)" d="M 343.718065 22.136364 
L 343.718091 248.863636 
" style="fill:none;stroke:#000000;stroke-opacity:0.3;stroke-width:8.188153;"/>
    <path clip-path="url(#pd7da24bfde)" d="M 150.47802 65.437431 
L 343.718091 248.863636 
" style="fill:none;stroke:#000000;stroke-opacity:0.3;stroke-width:2.787456;"/>
    <path clip-path="url(#pd7da24bfde)" d="M 150.478041 205.562598 
L 343.718091 248.863636 
" style="fill:none;stroke:#000000;stroke-opacity:0.3;stroke-width:0.348432;"/>
   </g>
   <g id="LineCollection_2">
    <path clip-path="url(#pd7da24bfde)" d="M 463.14698 135.500001 
L 343.718091 248.863636 
" style="fill:none;stroke:#000000;stroke-opacity:0.4;"/>
    <path clip-path="url(#pd7da24bfde)" d="M 463.14698 135.500001 
L 343.718065 22.136364 
" style="fill:none;stroke:#000000;stroke-opacity:0.4;"/>
    <path clip-path="url(#pd7da24bfde)" d="M 463.14698 135.500001 
L 150.47802 65.437431 
" style="fill:none;stroke:#000000;stroke-opacity:0.4;"/>
    <path clip-path="url(#pd7da24bfde)" d="M 463.14698 135.500001 
L 150.478041 205.562598 
" style="fill:none;stroke:#000000;stroke-opacity:0.4;"/>
    <path clip-path="url(#pd7da24bfde)" d="M 343.718065 22.136364 
L 343.718091 248.863636 
" style="fill:none;stroke:#000000;stroke-opacity:0.4;"/>
    <path clip-path="url(#pd7da24bfde)" d="M 150.47802 65.437431 
L 343.718091 248.863636 
" style="fill:none;stroke:#000000;stroke-opacity:0.4;"/>
    <path clip-path="url(#pd7da24bfde)" d="M 150.478041 205.562598 
L 343.718091 248.863636 
" style="fill:none;stroke:#000000;stroke-opacity:0.4;"/>
   </g>
   <g id="PathCollection_1">
    <path clip-path="url(#pd7da24bfde)" d="M 463.14698 135.500001 
C 463.14698 135.500001 463.14698 135.500001 463.14698 135.500001 
C 463.14698 135.500001 463.14698 135.500001 463.14698 135.500001 
C 463.14698 135.500001 463.14698 135.500001 463.14698 135.500001 
C 463.14698 135.500001 463.14698 135.500001 463.14698 135.500001 
C 463.14698 135.500001 463.14698 135.500001 463.14698 135.500001 
C 463.14698 135.500001 463.14698 135.500001 463.14698 135.500001 
C 463.14698 135.500001 463.14698 135.500001 463.14698 135.500001 
C 463.14698 135.500001 463.14698 135.500001 463.14698 135.500001 
z
" style="fill:#008000;fill-opacity:0.4;stroke:#008000;stroke-opacity:0.4;"/>
    <path clip-path="url(#pd7da24bfde)" d="M 343.718065 22.136364 
C 343.718065 22.136364 343.718065 22.136364 343.718065 22.136364 
C 343.718065 22.136364 343.718065 22.136364 343.718065 22.136364 
C 343.718065 22.136364 343.718065 22.136364 343.718065 22.136364 
C 343.718065 22.136364 343.718065 22.136364 343.718065 22.136364 
C 343.718065 22.136364 343.718065 22.136364 343.718065 22.136364 
C 343.718065 22.136364 343.718065 22.136364 343.718065 22.136364 
C 343.718065 22.136364 343.718065 22.136364 343.718065 22.136364 
C 343.718065 22.136364 343.718065 22.136364 343.718065 22.136364 
z
" style="fill:#008000;fill-opacity:0.4;stroke:#008000;stroke-opacity:0.4;"/>
    <path clip-path="url(#pd7da24bfde)" d="M 150.47802 65.437431 
C 150.47802 65.437431 150.47802 65.437431 150.47802 65.437431 
C 150.47802 65.437431 150.47802 65.437431 150.47802 65.437431 
C 150.47802 65.437431 150.47802 65.437431 150.47802 65.437431 
C 150.47802 65.437431 150.47802 65.437431 150.47802 65.437431 
C 150.47802 65.437431 150.47802 65.437431 150.47802 65.437431 
C 150.47802 65.437431 150.47802 65.437431 150.47802 65.437431 
C 150.47802 65.437431 150.47802 65.437431 150.47802 65.437431 
C 150.47802 65.437431 150.47802 65.437431 150.47802 65.437431 
z
" style="fill:#008000;fill-opacity:0.4;stroke:#008000;stroke-opacity:0.4;"/>
    <path clip-path="url(#pd7da24bfde)" d="M 150.478041 205.562598 
C 150.478041 205.562598 150.478041 205.562598 150.478041 205.562598 
C 150.478041 205.562598 150.478041 205.562598 150.478041 205.562598 
C 150.478041 205.562598 150.478041 205.562598 150.478041 205.562598 
C 150.478041 205.562598 150.478041 205.562598 150.478041 205.562598 
C 150.478041 205.562598 150.478041 205.562598 150.478041 205.562598 
C 150.478041 205.562598 150.478041 205.562598 150.478041 205.562598 
C 150.478041 205.562598 150.478041 205.562598 150.478041 205.562598 
C 150.478041 205.562598 150.478041 205.562598 150.478041 205.562598 
z
" style="fill:#008000;fill-opacity:0.4;stroke:#008000;stroke-opacity:0.4;"/>
    <path clip-path="url(#pd7da24bfde)" d="M 343.718091 248.863636 
C 343.718091 248.863636 343.718091 248.863636 343.718091 248.863636 
C 343.718091 248.863636 343.718091 248.863636 343.718091 248.863636 
C 343.718091 248.863636 343.718091 248.863636 343.718091 248.863636 
C 343.718091 248.863636 343.718091 248.863636 343.718091 248.863636 
C 343.718091 248.863636 343.718091 248.863636 343.718091 248.863636 
C 343.718091 248.863636 343.718091 248.863636 343.718091 248.863636 
C 343.718091 248.863636 343.718091 248.863636 343.718091 248.863636 
C 343.718091 248.863636 343.718091 248.863636 343.718091 248.863636 
z
" style="fill:#008000;fill-opacity:0.4;stroke:#008000;stroke-opacity:0.4;"/>
   </g>
   <g id="text_1">
    <g clip-path="url(#pd7da24bfde)">
     <!-- Eduard -->
     <defs>
      <path d="M 9.8125 72.90625 
L 55.90625 72.90625 
L 55.90625 64.59375 
L 19.671875 64.59375 
L 19.671875 43.015625 
L 54.390625 43.015625 
L 54.390625 34.71875 
L 19.671875 34.71875 
L 19.671875 8.296875 
L 56.78125 8.296875 
L 56.78125 0 
L 9.8125 0 
z
" id="DejaVuSans-69"/>
      <path d="M 45.40625 46.390625 
L 45.40625 75.984375 
L 54.390625 75.984375 
L 54.390625 0 
L 45.40625 0 
L 45.40625 8.203125 
Q 42.578125 3.328125 38.25 0.953125 
Q 33.9375 -1.421875 27.875 -1.421875 
Q 17.96875 -1.421875 11.734375 6.484375 
Q 5.515625 14.40625 5.515625 27.296875 
Q 5.515625 40.1875 11.734375 48.09375 
Q 17.96875 56 27.875 56 
Q 33.9375 56 38.25 53.625 
Q 42.578125 51.265625 45.40625 46.390625 
z
M 14.796875 27.296875 
Q 14.796875 17.390625 18.875 11.75 
Q 22.953125 6.109375 30.078125 6.109375 
Q 37.203125 6.109375 41.296875 11.75 
Q 45.40625 17.390625 45.40625 27.296875 
Q 45.40625 37.203125 41.296875 42.84375 
Q 37.203125 48.484375 30.078125 48.484375 
Q 22.953125 48.484375 18.875 42.84375 
Q 14.796875 37.203125 14.796875 27.296875 
z
" id="DejaVuSans-100"/>
      <path d="M 8.5 21.578125 
L 8.5 54.6875 
L 17.484375 54.6875 
L 17.484375 21.921875 
Q 17.484375 14.15625 20.5 10.265625 
Q 23.53125 6.390625 29.59375 6.390625 
Q 36.859375 6.390625 41.078125 11.03125 
Q 45.3125 15.671875 45.3125 23.6875 
L 45.3125 54.6875 
L 54.296875 54.6875 
L 54.296875 0 
L 45.3125 0 
L 45.3125 8.40625 
Q 42.046875 3.421875 37.71875 1 
Q 33.40625 -1.421875 27.6875 -1.421875 
Q 18.265625 -1.421875 13.375 4.4375 
Q 8.5 10.296875 8.5 21.578125 
z
M 31.109375 56 
z
" id="DejaVuSans-117"/>
      <path d="M 34.28125 27.484375 
Q 23.390625 27.484375 19.1875 25 
Q 14.984375 22.515625 14.984375 16.5 
Q 14.984375 11.71875 18.140625 8.90625 
Q 21.296875 6.109375 26.703125 6.109375 
Q 34.1875 6.109375 38.703125 11.40625 
Q 43.21875 16.703125 43.21875 25.484375 
L 43.21875 27.484375 
z
M 52.203125 31.203125 
L 52.203125 0 
L 43.21875 0 
L 43.21875 8.296875 
Q 40.140625 3.328125 35.546875 0.953125 
Q 30.953125 -1.421875 24.3125 -1.421875 
Q 15.921875 -1.421875 10.953125 3.296875 
Q 6 8.015625 6 15.921875 
Q 6 25.140625 12.171875 29.828125 
Q 18.359375 34.515625 30.609375 34.515625 
L 43.21875 34.515625 
L 43.21875 35.40625 
Q 43.21875 41.609375 39.140625 45 
Q 35.0625 48.390625 27.6875 48.390625 
Q 23 48.390625 18.546875 47.265625 
Q 14.109375 46.140625 10.015625 43.890625 
L 10.015625 52.203125 
Q 14.9375 54.109375 19.578125 55.046875 
Q 24.21875 56 28.609375 56 
Q 40.484375 56 46.34375 49.84375 
Q 52.203125 43.703125 52.203125 31.203125 
z
" id="DejaVuSans-97"/>
      <path d="M 41.109375 46.296875 
Q 39.59375 47.171875 37.8125 47.578125 
Q 36.03125 48 33.890625 48 
Q 26.265625 48 22.1875 43.046875 
Q 18.109375 38.09375 18.109375 28.8125 
L 18.109375 0 
L 9.078125 0 
L 9.078125 54.6875 
L 18.109375 54.6875 
L 18.109375 46.1875 
Q 20.953125 51.171875 25.484375 53.578125 
Q 30.03125 56 36.53125 56 
Q 37.453125 56 38.578125 55.875 
Q 39.703125 55.765625 41.0625 55.515625 
z
" id="DejaVuSans-114"/>
     </defs>
     <g transform="translate(441.792605 138.811251)scale(0.12 -0.12)">
      <use xlink:href="#DejaVuSans-69"/>
      <use x="63.183594" xlink:href="#DejaVuSans-100"/>
      <use x="126.660156" xlink:href="#DejaVuSans-117"/>
      <use x="190.039062" xlink:href="#DejaVuSans-97"/>
      <use x="251.318359" xlink:href="#DejaVuSans-114"/>
      <use x="292.416016" xlink:href="#DejaVuSans-100"/>
     </g>
    </g>
   </g>
   <g id="text_2">
    <g clip-path="url(#pd7da24bfde)">
     <!-- Ottilie -->
     <defs>
      <path d="M 39.40625 66.21875 
Q 28.65625 66.21875 22.328125 58.203125 
Q 16.015625 50.203125 16.015625 36.375 
Q 16.015625 22.609375 22.328125 14.59375 
Q 28.65625 6.59375 39.40625 6.59375 
Q 50.140625 6.59375 56.421875 14.59375 
Q 62.703125 22.609375 62.703125 36.375 
Q 62.703125 50.203125 56.421875 58.203125 
Q 50.140625 66.21875 39.40625 66.21875 
z
M 39.40625 74.21875 
Q 54.734375 74.21875 63.90625 63.9375 
Q 73.09375 53.65625 73.09375 36.375 
Q 73.09375 19.140625 63.90625 8.859375 
Q 54.734375 -1.421875 39.40625 -1.421875 
Q 24.03125 -1.421875 14.8125 8.828125 
Q 5.609375 19.09375 5.609375 36.375 
Q 5.609375 53.65625 14.8125 63.9375 
Q 24.03125 74.21875 39.40625 74.21875 
z
" id="DejaVuSans-79"/>
      <path d="M 18.3125 70.21875 
L 18.3125 54.6875 
L 36.8125 54.6875 
L 36.8125 47.703125 
L 18.3125 47.703125 
L 18.3125 18.015625 
Q 18.3125 11.328125 20.140625 9.421875 
Q 21.96875 7.515625 27.59375 7.515625 
L 36.8125 7.515625 
L 36.8125 0 
L 27.59375 0 
Q 17.1875 0 13.234375 3.875 
Q 9.28125 7.765625 9.28125 18.015625 
L 9.28125 47.703125 
L 2.6875 47.703125 
L 2.6875 54.6875 
L 9.28125 54.6875 
L 9.28125 70.21875 
z
" id="DejaVuSans-116"/>
      <path d="M 9.421875 54.6875 
L 18.40625 54.6875 
L 18.40625 0 
L 9.421875 0 
z
M 9.421875 75.984375 
L 18.40625 75.984375 
L 18.40625 64.59375 
L 9.421875 64.59375 
z
" id="DejaVuSans-105"/>
      <path d="M 9.421875 75.984375 
L 18.40625 75.984375 
L 18.40625 0 
L 9.421875 0 
z
" id="DejaVuSans-108"/>
      <path d="M 56.203125 29.59375 
L 56.203125 25.203125 
L 14.890625 25.203125 
Q 15.484375 15.921875 20.484375 11.0625 
Q 25.484375 6.203125 34.421875 6.203125 
Q 39.59375 6.203125 44.453125 7.46875 
Q 49.3125 8.734375 54.109375 11.28125 
L 54.109375 2.78125 
Q 49.265625 0.734375 44.1875 -0.34375 
Q 39.109375 -1.421875 33.890625 -1.421875 
Q 20.796875 -1.421875 13.15625 6.1875 
Q 5.515625 13.8125 5.515625 26.8125 
Q 5.515625 40.234375 12.765625 48.109375 
Q 20.015625 56 32.328125 56 
Q 43.359375 56 49.78125 48.890625 
Q 56.203125 41.796875 56.203125 29.59375 
z
M 47.21875 32.234375 
Q 47.125 39.59375 43.09375 43.984375 
Q 39.0625 48.390625 32.421875 48.390625 
Q 24.90625 48.390625 20.390625 44.140625 
Q 15.875 39.890625 15.1875 32.171875 
z
" id="DejaVuSans-101"/>
     </defs>
     <g transform="translate(325.598065 25.447614)scale(0.12 -0.12)">
      <use xlink:href="#DejaVuSans-79"/>
      <use x="78.710938" xlink:href="#DejaVuSans-116"/>
      <use x="117.919922" xlink:href="#DejaVuSans-116"/>
      <use x="157.128906" xlink:href="#DejaVuSans-105"/>
      <use x="184.912109" xlink:href="#DejaVuSans-108"/>
      <use x="212.695312" xlink:href="#DejaVuSans-105"/>
      <use x="240.478516" xlink:href="#DejaVuSans-101"/>
     </g>
    </g>
   </g>
   <g id="text_3">
    <g clip-path="url(#pd7da24bfde)">
     <!-- Hauptmann -->
     <defs>
      <path d="M 9.8125 72.90625 
L 19.671875 72.90625 
L 19.671875 43.015625 
L 55.515625 43.015625 
L 55.515625 72.90625 
L 65.375 72.90625 
L 65.375 0 
L 55.515625 0 
L 55.515625 34.71875 
L 19.671875 34.71875 
L 19.671875 0 
L 9.8125 0 
z
" id="DejaVuSans-72"/>
      <path d="M 18.109375 8.203125 
L 18.109375 -20.796875 
L 9.078125 -20.796875 
L 9.078125 54.6875 
L 18.109375 54.6875 
L 18.109375 46.390625 
Q 20.953125 51.265625 25.265625 53.625 
Q 29.59375 56 35.59375 56 
Q 45.5625 56 51.78125 48.09375 
Q 58.015625 40.1875 58.015625 27.296875 
Q 58.015625 14.40625 51.78125 6.484375 
Q 45.5625 -1.421875 35.59375 -1.421875 
Q 29.59375 -1.421875 25.265625 0.953125 
Q 20.953125 3.328125 18.109375 8.203125 
z
M 48.6875 27.296875 
Q 48.6875 37.203125 44.609375 42.84375 
Q 40.53125 48.484375 33.40625 48.484375 
Q 26.265625 48.484375 22.1875 42.84375 
Q 18.109375 37.203125 18.109375 27.296875 
Q 18.109375 17.390625 22.1875 11.75 
Q 26.265625 6.109375 33.40625 6.109375 
Q 40.53125 6.109375 44.609375 11.75 
Q 48.6875 17.390625 48.6875 27.296875 
z
" id="DejaVuSans-112"/>
      <path d="M 52 44.1875 
Q 55.375 50.25 60.0625 53.125 
Q 64.75 56 71.09375 56 
Q 79.640625 56 84.28125 50.015625 
Q 88.921875 44.046875 88.921875 33.015625 
L 88.921875 0 
L 79.890625 0 
L 79.890625 32.71875 
Q 79.890625 40.578125 77.09375 44.375 
Q 74.3125 48.1875 68.609375 48.1875 
Q 61.625 48.1875 57.5625 43.546875 
Q 53.515625 38.921875 53.515625 30.90625 
L 53.515625 0 
L 44.484375 0 
L 44.484375 32.71875 
Q 44.484375 40.625 41.703125 44.40625 
Q 38.921875 48.1875 33.109375 48.1875 
Q 26.21875 48.1875 22.15625 43.53125 
Q 18.109375 38.875 18.109375 30.90625 
L 18.109375 0 
L 9.078125 0 
L 9.078125 54.6875 
L 18.109375 54.6875 
L 18.109375 46.1875 
Q 21.1875 51.21875 25.484375 53.609375 
Q 29.78125 56 35.6875 56 
Q 41.65625 56 45.828125 52.96875 
Q 50 49.953125 52 44.1875 
z
" id="DejaVuSans-109"/>
      <path d="M 54.890625 33.015625 
L 54.890625 0 
L 45.90625 0 
L 45.90625 32.71875 
Q 45.90625 40.484375 42.875 44.328125 
Q 39.84375 48.1875 33.796875 48.1875 
Q 26.515625 48.1875 22.3125 43.546875 
Q 18.109375 38.921875 18.109375 30.90625 
L 18.109375 0 
L 9.078125 0 
L 9.078125 54.6875 
L 18.109375 54.6875 
L 18.109375 46.1875 
Q 21.34375 51.125 25.703125 53.5625 
Q 30.078125 56 35.796875 56 
Q 45.21875 56 50.046875 50.171875 
Q 54.890625 44.34375 54.890625 33.015625 
z
" id="DejaVuSans-110"/>
     </defs>
     <g transform="translate(115.198957 68.748681)scale(0.12 -0.12)">
      <use xlink:href="#DejaVuSans-72"/>
      <use x="75.195312" xlink:href="#DejaVuSans-97"/>
      <use x="136.474609" xlink:href="#DejaVuSans-117"/>
      <use x="199.853516" xlink:href="#DejaVuSans-112"/>
      <use x="263.330078" xlink:href="#DejaVuSans-116"/>
      <use x="302.539062" xlink:href="#DejaVuSans-109"/>
      <use x="399.951172" xlink:href="#DejaVuSans-97"/>
      <use x="461.230469" xlink:href="#DejaVuSans-110"/>
      <use x="524.609375" xlink:href="#DejaVuSans-110"/>
     </g>
    </g>
   </g>
   <g id="text_4">
    <g clip-path="url(#pd7da24bfde)">
     <!-- Luciane -->
     <defs>
      <path d="M 9.8125 72.90625 
L 19.671875 72.90625 
L 19.671875 8.296875 
L 55.171875 8.296875 
L 55.171875 0 
L 9.8125 0 
z
" id="DejaVuSans-76"/>
      <path d="M 48.78125 52.59375 
L 48.78125 44.1875 
Q 44.96875 46.296875 41.140625 47.34375 
Q 37.3125 48.390625 33.40625 48.390625 
Q 24.65625 48.390625 19.8125 42.84375 
Q 14.984375 37.3125 14.984375 27.296875 
Q 14.984375 17.28125 19.8125 11.734375 
Q 24.65625 6.203125 33.40625 6.203125 
Q 37.3125 6.203125 41.140625 7.25 
Q 44.96875 8.296875 48.78125 10.40625 
L 48.78125 2.09375 
Q 45.015625 0.34375 40.984375 -0.53125 
Q 36.96875 -1.421875 32.421875 -1.421875 
Q 20.0625 -1.421875 12.78125 6.34375 
Q 5.515625 14.109375 5.515625 27.296875 
Q 5.515625 40.671875 12.859375 48.328125 
Q 20.21875 56 33.015625 56 
Q 37.15625 56 41.109375 55.140625 
Q 45.0625 54.296875 48.78125 52.59375 
z
" id="DejaVuSans-99"/>
     </defs>
     <g transform="translate(127.196166 208.873848)scale(0.12 -0.12)">
      <use xlink:href="#DejaVuSans-76"/>
      <use x="55.697266" xlink:href="#DejaVuSans-117"/>
      <use x="119.076172" xlink:href="#DejaVuSans-99"/>
      <use x="174.056641" xlink:href="#DejaVuSans-105"/>
      <use x="201.839844" xlink:href="#DejaVuSans-97"/>
      <use x="263.119141" xlink:href="#DejaVuSans-110"/>
      <use x="326.498047" xlink:href="#DejaVuSans-101"/>
     </g>
    </g>
   </g>
   <g id="text_5">
    <g clip-path="url(#pd7da24bfde)">
     <!-- Charlotte -->
     <defs>
      <path d="M 64.40625 67.28125 
L 64.40625 56.890625 
Q 59.421875 61.53125 53.78125 63.8125 
Q 48.140625 66.109375 41.796875 66.109375 
Q 29.296875 66.109375 22.65625 58.46875 
Q 16.015625 50.828125 16.015625 36.375 
Q 16.015625 21.96875 22.65625 14.328125 
Q 29.296875 6.6875 41.796875 6.6875 
Q 48.140625 6.6875 53.78125 8.984375 
Q 59.421875 11.28125 64.40625 15.921875 
L 64.40625 5.609375 
Q 59.234375 2.09375 53.4375 0.328125 
Q 47.65625 -1.421875 41.21875 -1.421875 
Q 24.65625 -1.421875 15.125 8.703125 
Q 5.609375 18.84375 5.609375 36.375 
Q 5.609375 53.953125 15.125 64.078125 
Q 24.65625 74.21875 41.21875 74.21875 
Q 47.75 74.21875 53.53125 72.484375 
Q 59.328125 70.75 64.40625 67.28125 
z
" id="DejaVuSans-67"/>
      <path d="M 54.890625 33.015625 
L 54.890625 0 
L 45.90625 0 
L 45.90625 32.71875 
Q 45.90625 40.484375 42.875 44.328125 
Q 39.84375 48.1875 33.796875 48.1875 
Q 26.515625 48.1875 22.3125 43.546875 
Q 18.109375 38.921875 18.109375 30.90625 
L 18.109375 0 
L 9.078125 0 
L 9.078125 75.984375 
L 18.109375 75.984375 
L 18.109375 46.1875 
Q 21.34375 51.125 25.703125 53.5625 
Q 30.078125 56 35.796875 56 
Q 45.21875 56 50.046875 50.171875 
Q 54.890625 44.34375 54.890625 33.015625 
z
" id="DejaVuSans-104"/>
      <path d="M 30.609375 48.390625 
Q 23.390625 48.390625 19.1875 42.75 
Q 14.984375 37.109375 14.984375 27.296875 
Q 14.984375 17.484375 19.15625 11.84375 
Q 23.34375 6.203125 30.609375 6.203125 
Q 37.796875 6.203125 41.984375 11.859375 
Q 46.1875 17.53125 46.1875 27.296875 
Q 46.1875 37.015625 41.984375 42.703125 
Q 37.796875 48.390625 30.609375 48.390625 
z
M 30.609375 56 
Q 42.328125 56 49.015625 48.375 
Q 55.71875 40.765625 55.71875 27.296875 
Q 55.71875 13.875 49.015625 6.21875 
Q 42.328125 -1.421875 30.609375 -1.421875 
Q 18.84375 -1.421875 12.171875 6.21875 
Q 5.515625 13.875 5.515625 27.296875 
Q 5.515625 40.765625 12.171875 48.375 
Q 18.84375 56 30.609375 56 
z
" id="DejaVuSans-111"/>
     </defs>
     <g transform="translate(315.848091 252.174886)scale(0.12 -0.12)">
      <use xlink:href="#DejaVuSans-67"/>
      <use x="69.824219" xlink:href="#DejaVuSans-104"/>
      <use x="133.203125" xlink:href="#DejaVuSans-97"/>
      <use x="194.482422" xlink:href="#DejaVuSans-114"/>
      <use x="235.595703" xlink:href="#DejaVuSans-108"/>
      <use x="263.378906" xlink:href="#DejaVuSans-111"/>
      <use x="324.560547" xlink:href="#DejaVuSans-116"/>
      <use x="363.769531" xlink:href="#DejaVuSans-116"/>
      <use x="402.978516" xlink:href="#DejaVuSans-101"/>
     </g>
    </g>
   </g>
  </g>
 </g>
 <defs>
  <clipPath id="pd7da24bfde">
   <rect height="249.4" width="516.775" x="48.425" y="10.8"/>
  </clipPath>
 </defs>
</svg>
